<svg width="192" height="192" viewBox="0 0 192 192" fill="none" xmlns="http://www.w3.org/2000/svg">
<rect width="192" height="192" fill="white"/>
<mask id="mask0_2035_380" style="mask-type:alpha" maskUnits="userSpaceOnUse" x="20" y="8" width="152" height="184">
<rect x="20" y="8" width="152" height="184" fill="#D9D9D9"/>
</mask>
<g mask="url(#mask0_2035_380)">
<path d="M127.518 133.126L121.315 125.85L114.039 127.997L108.314 128.474L98.2386 128.593C98.2386 128.593 98.8779 140.135 98.771 140.879C98.664 141.624 97.3082 145.305 96.9817 145.77C96.6552 146.234 94.3575 148.156 94.3575 148.156C94.3575 148.156 91.2469 157.121 90.8484 158.114C90.4498 159.106 85.3338 169.254 85.3338 169.254L83.7413 169.388L80.1628 155.67L74.0794 157.221L73.0059 166.883L71.5745 192.529H153.76L150.063 185.849L145.768 177.38L143.025 171.058L138.373 157.698L133.244 145.412L127.518 133.126Z" fill="#A02817"/>
<path d="M94.8642 63.5469C95.2931 63.7468 95.7478 66.5511 95.783 67.4341C95.8181 68.3172 113.947 67.0807 113.947 67.0807L115.502 64.2537L113.805 59.0237L107.374 59.5891C107.374 59.5891 104.691 59.7677 102.531 59.5024C100.371 59.2371 97.15 57.5697 94.9141 55.5612C92.6783 53.5527 91.3222 51.5197 90.6319 50.8242C89.9415 50.1287 85.8177 47.7155 85.8177 47.7155C85.8177 47.7155 83.3558 46.9588 82.4959 46.514C81.636 46.0693 77.2659 42.7682 77.2659 42.7682C77.2659 42.7682 78.9162 47.0375 79.0328 48.9877C79.1494 50.9379 79.6824 53.5605 80.0222 54.7124C80.362 55.8644 81.9228 58.7049 83.132 60.0131C84.3411 61.3214 86.9856 64.983 90.4045 64.9215C93.8234 64.8601 94.4215 64.2394 94.8642 63.5469Z" fill="#F1D7B2" stroke="black" stroke-width="2" stroke-linecap="round"/>
<path d="M109.89 62.9231C101.173 62.9231 93.8054 68.6823 90.8998 74.7529C87.9942 80.8235 122.861 75.0642 122.861 75.0642C122.861 75.0642 118.607 62.9231 109.89 62.9231Z" fill="white" stroke="black" stroke-width="2" stroke-linecap="round"/>
<path d="M84.7583 168.834C85.5125 168.261 91.9321 156.418 93.422 148.472C94.9119 140.526 80.2333 152.224 80.2885 153.438C80.3437 154.653 84.0042 169.408 84.7583 168.834Z" fill="white" stroke="black" stroke-width="2"/>
<path d="M115.684 71.2757C117.177 71.5514 121.04 73.2698 121.889 73.9739C122.739 74.6779 124.588 77.4815 125.217 78.6507C125.847 79.8199 128.5 84.971 129.084 87.3747C129.669 89.7785 130.82 98.1326 130.883 101.855C130.976 107.354 130.613 114.626 129.894 118.314C129.174 122.001 124 127.5 124 127.5L121.5 125V111.5C121.5 111.5 113.615 112.648 111 113C108.385 113.352 98 114 98 114L97 120.5V124.5C97 124.5 98.4154 139.539 98 141C97.5846 142.461 96.7439 145.389 95.2675 146.554C93.7911 147.72 89.1662 151.481 84.5648 153.3C79.9634 155.119 73.7349 156.845 72.1533 156.987C70.5716 157.13 67.2944 157.115 65.4978 156.268C63.7012 155.421 62.8896 153.749 62.0801 150.871C61.6294 149.269 60.5442 143.624 59.8317 138.64C59.2645 134.672 59 131 59 131C59 131 54.5899 123.087 54.7052 118.494C54.8204 113.9 56.7737 107.188 60.6411 102.844C64.5085 98.5 66.6509 98.4101 68.0161 98.7969C69.3813 99.1838 72 102 72 102L77.6395 90.2528C77.6395 90.2528 81.5357 82.1588 83.5 80C85.4642 77.8412 88.5221 76.0425 94.1882 73.794C99.8544 71.5455 105.431 70.826 108.309 70.7361C111.187 70.6461 114.191 71 115.684 71.2757Z" fill="white" stroke="black" stroke-width="2"/>
<path d="M98.4628 94.8813C98.9368 101.856 98.9675 109.4 98.0872 113.395" stroke="black" stroke-width="2" stroke-linecap="round"/>
<path d="M75.862 93.8723C75.862 93.8723 77.5064 91.671 80.9788 91.671C84.4513 91.671 93.1119 96.9289 98.2067 113.199" stroke="black" stroke-width="2" stroke-linecap="round"/>
<path d="M125.962 90.3442C125.624 97.0483 124.405 104.497 121.29 111.405" stroke="black" stroke-width="2" stroke-linecap="round"/>
<path d="M86.4414 138.28C92.6978 131.804 96.6492 121.377 97.8566 115.12" stroke="black" stroke-width="2" stroke-linecap="round"/>
<path d="M69.7077 107.017C70.0641 105.704 69.9926 105.804 71.1055 103.879L71.8555 102.301M69.7077 107.017C69.7077 107.017 66.9453 110.312 65.4913 114.141C64.0374 117.97 64.9582 120.15 65.1036 120.926C65.249 121.701 65.7821 123.204 67.0906 123.204C68.3992 123.204 68.9323 121.653 69.0777 120.974C69.223 120.296 69.5623 116.613 69.6108 114.432C69.6593 112.251 69.7077 107.017 69.7077 107.017Z" stroke="black" stroke-width="2"/>
<path d="M64.2766 138.621C62.5735 136.832 58.9941 131.289 58.59 130.192" stroke="black" stroke-width="2" stroke-linecap="round"/>
<path d="M74.9325 37.348C75.063 38.9776 75.6348 41.2426 76.2725 42.1721C76.9102 43.1015 82.6152 46.5494 82.6152 46.5494L85.7419 47.6214L90.6552 50.4801L93.4245 54.2321L101.465 59.2348L112.095 59.1454L118.527 58.0734L118.081 55.5721L117.187 52.7134C117.187 52.7134 117.708 52.5368 118.259 52.1774C118.811 51.8181 119.772 50.0147 120.574 48.1712C121.375 46.3277 122.12 44.1463 122.369 41.1894C122.618 38.2325 122.279 35.9602 121.565 32.7027C120.85 29.4452 117.794 24.7596 116.651 23.2333C115.508 21.707 113.914 19.9504 110.845 18.2307C107.775 16.511 104.932 15.3577 102.09 15.1933C99.248 15.0289 96.4767 15.1771 94.0499 15.64C91.6231 16.1029 86.9632 18.1355 85.6525 19.2133C84.3418 20.2912 82.5258 22.34 82.5258 22.34C82.5258 22.34 81.647 22.5851 81.4171 22.7452C81.1873 22.9053 79.336 24.0199 78.3272 25.3773C77.3183 26.7348 75.6601 29.7969 75.2005 31.5414C74.7409 33.2858 74.802 35.7185 74.9325 37.348Z" fill="black" stroke="black" stroke-width="2" stroke-linecap="round"/>
<path d="M84.3441 44.5426C84.2345 43.8485 84.7824 43.2093 85.7173 43.0955C86.2049 43.058 86.9275 43.3862 87.4849 43.7949C88.0422 44.2037 88.6433 45.0463 89.0185 45.6465C89.3936 46.2467 89.7312 47.222 89.8813 48.4975C90.0313 49.773 89.9563 50.5232 89.9188 51.236C89.8813 51.9488 89.7503 53.1816 88.8309 53.7869C88.1556 54.1621 87.4054 54.1996 86.8802 53.4493C86.355 52.699 86.5426 51.6487 86.5426 50.5983C86.5426 49.5479 86.2049 48.46 85.9423 47.9723C85.6797 47.4846 84.4536 45.2366 84.3441 44.5426Z" fill="#F1D7B2" stroke="black" stroke-width="2" stroke-linecap="round"/>
<path d="M111.017 113.332L121.486 111.86L121.322 125.436C121.322 125.436 117.628 126.805 113.948 127.349C110.268 127.892 106.296 127.936 104.497 128.018C102.697 128.099 97.3453 128.018 97.3453 128.018L96.6238 121.674L98.2594 113.987L111.017 113.332Z" fill="#A02817" stroke="black" stroke-width="2"/>
<path d="M86.0839 192.398C85.4205 188.259 84.5375 176.946 84.4738 168.326" stroke="black" stroke-width="2" stroke-linecap="round"/>
<path d="M73.4006 157.159C71.6233 166.432 71.237 184.514 71.0825 192.396" stroke="black" stroke-width="2" stroke-linecap="round"/>
<path d="M103.85 128.362C105.627 134.853 107.324 143.867 107.943 149.045C108.561 154.222 111.111 176.246 111.42 178.255C111.729 180.264 113.12 187.682 114.125 192.551" stroke="black" stroke-width="2" stroke-linecap="round"/>
<path d="M112.923 127.583C114.546 130.133 116.366 135.985 117.293 139.231C118.22 142.476 121.929 158.859 122.393 161.718C122.857 164.577 126.747 186.597 128.652 192.242" stroke="black" stroke-width="2" stroke-linecap="round"/>
<path d="M118.207 142.847C121.982 153.367 132.131 186.474 134.668 192.352" stroke="black" stroke-width="2" stroke-linecap="round"/>
<path d="M117.283 127.034C119.226 130.336 120.298 132.362 121.906 135.616C123.513 138.87 128.133 152.449 129.421 155.836C130.709 159.223 135.349 175.421 137.963 181.678C140.577 187.936 141.81 190.061 142.937 191.951" stroke="black" stroke-width="2" stroke-linecap="round"/>
<path d="M122.005 125.849C122.005 125.849 124.541 128.522 126.528 131.331C128.516 134.141 132.079 141.063 133.107 143.53C134.135 145.997 138.11 155.865 139.275 159.702C140.44 163.54 143.112 170.256 144.14 172.86C145.168 175.464 148.32 181.837 149.006 183.071C149.691 184.304 152.501 190.061 154.145 192.528" stroke="black" stroke-width="2" stroke-linecap="round"/>
<path d="M72.0679 78.5202C73.2413 76.6041 78.0146 73.6974 79.1026 74.4758C80.1905 75.2541 78.854 80.658 77.8304 82.3295C76.8068 84.0009 71.6812 88.1494 70.3954 87.2498C69.1095 86.3503 70.8945 80.4363 72.0679 78.5202Z" fill="#50714D" stroke="black" stroke-width="2" stroke-linecap="round"/>
<path d="M54.9177 94.4393C55.4256 95.8181 58.6187 105.47 58.6187 105.47L65.8029 98.9385L62.6825 92.1896C62.6825 92.1896 61.5214 87.255 61.2311 86.4567C60.9409 85.6585 59.4895 84.2071 58.9815 83.6266C58.4735 83.046 55.2805 80.869 55.2805 80.869L53.684 78.6193L51.0715 76.5874L49.1848 76.2972L48.2414 77.7485C48.2414 77.7485 52.5955 84.8602 52.0875 85.1505C51.5795 85.4408 49.1122 81.3769 48.6768 80.7964C48.2414 80.2158 45.6289 78.4016 45.0484 77.168C44.4678 75.9343 44.1775 72.7413 44.1775 72.7413C44.1775 72.7413 43.1616 72.0882 42.4359 72.1607C41.7102 72.2333 40.8394 73.3218 40.912 74.0475C40.9845 74.7732 41.2023 77.3131 41.4199 78.5468C41.6376 79.7804 45.1935 85.8762 45.9192 86.747C46.6449 87.6178 54.4097 93.0605 54.9177 94.4393Z" fill="#F1D7B2" stroke="black" stroke-width="2"/>
<path d="M53.3211 74.3378C53.6114 75.0635 54.2645 78.9096 54.2645 78.9096L50.6361 76.0069C50.6361 76.0069 50.679 74.0742 50.8241 73.4936C50.9692 72.9131 51.8022 72.8477 52.2326 72.8864C52.6631 72.9252 53.0309 73.6121 53.3211 74.3378Z" fill="#F1D7B2" stroke="black" stroke-width="2"/>
<path d="M45.9917 71.7979C45.506 71.6402 44.8686 71.9346 44.3952 72.6687C43.9218 73.4029 44.7058 76.3334 44.9177 76.7948C45.1297 77.2562 46.1485 78.884 46.8814 78.8567C47.6144 78.8295 48.0548 77.9434 48.2413 77.676C48.4279 77.4085 48.1218 75.9098 48.0842 75.4693C48.0467 75.0288 47.2465 73.3933 47.0803 73.0316C46.914 72.6698 46.4775 71.9556 45.9917 71.7979Z" fill="#F1D7B2" stroke="black" stroke-width="2"/>
<path d="M67.1803 95.992C65.7385 97.7458 60.5762 100.006 59.6068 99.0836C58.6375 98.1616 60.743 92.9512 62.0008 91.4212C63.2586 89.8913 68.9495 86.4402 70.0982 87.5096C71.2468 88.5789 68.6221 94.2381 67.1803 95.992Z" fill="#50714D" stroke="black" stroke-width="2" stroke-linecap="round"/>
<path d="M74.9426 95.4071C72.1804 90.2666 66.3254 81.5718 64.3366 79.2028C62.3479 76.8337 57.2292 73.0606 55.3193 70.9027C53.4094 68.7448 50.4874 66.1485 49.3341 64.5249" stroke="black" stroke-width="2" stroke-linecap="round"/>
<path d="M54.5581 60.9522C54.8879 58.2456 58.1515 52.5652 59.462 52.8417C60.7725 53.1183 61.6637 59.714 61.376 62.0751C61.0883 64.4363 57.9879 71.6561 56.447 71.3515C54.9062 71.0468 54.2283 63.6589 54.5581 60.9522Z" fill="#50714D" stroke="black" stroke-width="2" stroke-linecap="round"/>
<path d="M65.146 67.095C66.2698 64.6107 71.0821 60.1655 72.25 60.8211C73.4179 61.4768 72.2969 68.0374 71.3166 70.2045C70.3363 72.3717 65.2195 78.3347 63.8401 77.5834C62.4608 76.8321 64.0223 69.5793 65.146 67.095Z" fill="#50714D" stroke="black" stroke-width="2" stroke-linecap="round"/>
<path d="M39.7602 60.0255C37.9134 58.0195 36.1029 51.4854 37.3712 50.4755C38.6395 49.4655 44.5011 52.8221 46.1122 54.572C47.7232 56.3219 50.8657 63.6801 49.3905 64.8805C47.9152 66.0809 41.607 62.0315 39.7602 60.0255Z" fill="#50714D" stroke="black" stroke-width="2" stroke-linecap="round"/>
<path d="M45.8751 76.2424C43.15 76.3349 37.0334 73.9886 37.104 72.6511C37.1747 71.3136 43.5534 69.4136 45.9306 69.3329C48.3078 69.2521 55.9201 71.1994 55.8573 72.7688C55.7945 74.3382 48.6001 76.1498 45.8751 76.2424Z" fill="#50714D" stroke="black" stroke-width="2" stroke-linecap="round"/>
<path d="M56.6316 85.5492C54.2627 86.8994 47.7569 87.6693 47.197 86.4526C46.6371 85.2359 51.3986 80.5856 53.4651 79.4078C55.5316 78.23 63.1755 76.4107 63.8503 77.829C64.5252 79.2474 59.0005 84.1991 56.6316 85.5492Z" fill="#50714D" stroke="black" stroke-width="2" stroke-linecap="round"/>
<path d="M129.468 69.5199C127.157 67.9521 126.389 66.7631 125.782 66.5729C125.175 66.3827 117.147 71.4175 117.147 71.4175C117.147 71.4175 117.835 75.2763 118.981 77.8967C121.101 82.741 124.196 86.4408 128.85 88.796C130.974 89.8706 135.126 90.7947 137.64 91.7256C138.551 92.0632 140.813 92.6709 141.657 93.1098C142.501 93.5487 144.088 94.5953 144.932 95.3719C145.776 96.1484 146.958 97.4988 147.498 98.2416C148.038 98.9843 149.355 101.314 149.49 102.192C149.625 103.069 149.794 104.623 149.693 105.5C149.591 106.378 149.155 107.382 149.017 107.864C148.88 108.346 149.086 109.064 149.287 109.315C149.489 109.567 149.996 109.822 150.537 109.619C151.077 109.417 151.921 108.91 152.225 108.64C152.529 108.37 153.305 107.627 154.048 106.749C154.791 105.872 155.736 103.981 156.242 103.036C156.749 102.09 157.205 101.231 157.491 99.457C157.778 97.6828 157.593 95.8445 157.525 94.7979C157.458 93.7513 156.918 92.097 156.715 91.388C156.512 90.679 155.5 88.6196 154.959 87.7418C154.419 86.864 153.204 85.2772 152.427 84.4669C151.651 83.6566 149.861 82.1711 149.861 82.1711L147.228 80.348C147.228 80.348 149.165 80.7161 149.929 81.0232C150.693 81.3303 152.236 82.3904 153.215 83.0656C154.194 83.7409 155.075 84.6258 155.926 85.5602C156.778 86.4946 157.412 87.3865 157.689 88.5428C157.965 89.6991 158.049 91.9 158.878 92.0121C159.707 92.1241 160.121 90.7332 160.263 89.3833L160.264 89.3783C160.406 88.0288 160.605 86.1398 160.004 84.4063C159.402 82.6707 159.021 81.8782 157.288 79.625C155.555 77.3717 153.406 75.7564 151.582 74.8818C149.759 74.0072 147.562 73.3958 145.121 73.0945C142.679 72.7932 140.566 72.9134 138.912 72.7596C137.257 72.6058 131.778 71.0878 129.468 69.5199Z" fill="black"/>
<path d="M118.124 53.4954C119.225 55.0817 126.388 66.7064 125.859 67.4555C125.331 68.2046 123.261 67.1374 121.14 68.0918C119.019 69.0462 119.183 71.6701 117.853 71.6974C116.522 71.7247 110.27 60.9866 108.945 58.2294C107.619 55.4721 108.392 52.5386 111.558 51.2481C114.724 49.9576 117.022 51.9091 118.124 53.4954Z" fill="white" stroke="black" stroke-width="2" stroke-linecap="round"/>
<path d="M99.1271 125.259C99.1271 125.259 106.378 125.341 111.937 124.697C117.496 124.053 119.41 123.178 119.41 123.178" stroke="white" stroke-linecap="round" stroke-dasharray="2 2"/>
</g>
</svg>
